<svg width="24" height="24" viewBox="0 0 24 24" fill="none" xmlns="http://www.w3.org/2000/svg">
  <path  d="M12 0C5.372 0 0 5.372 0 12c0 5.303 3.438 9.8 8.145 11.39.594.108.793-.258.793-.575v-2.081c-3.336.727-4.042-1.598-4.042-1.598-.545-1.377-1.333-1.743-1.333-1.743-1.089-.745.083-.73.083-.73 1.207.084 1.842 1.235 1.842 1.235 1.071 1.815 2.809 1.292 3.493.989.107-.775.419-1.292.764-1.592-2.664-.302-5.468-1.335-5.468-5.936 0-1.31.469-2.379 1.24-3.223-.124-.303-.539-1.523.118-3.173 0 0 1.006-.322 3.29 1.235.957-.265 1.983-.397 3.005-.402 1.022.005 2.048.137 3.002.402 2.283-1.558 3.29-1.235 3.29-1.235.658 1.65.244 2.87.12 3.173.77.844 1.239 1.913 1.239 3.223 0 4.608-2.804 5.632-5.47 5.927.434.375.821 1.115.821 2.243v3.318c0 .318.197.684.798.573C20.562 21.799 24 17.304 24 12 24 5.372 18.628 0 12 0z" fill="white"/>
</svg>

