<?xml version="1.0" standalone="no"?>
<!DOCTYPE svg PUBLIC "-//W3C//DTD SVG 20010904//EN"
 "http://www.w3.org/TR/2001/REC-SVG-20010904/DTD/svg10.dtd">
<svg version="1.0" xmlns="http://www.w3.org/2000/svg"
 width="297.000000pt" height="144.000000pt" viewBox="0 0 297.000000 144.000000"
 preserveAspectRatio="xMidYMid meet">

<g transform="translate(0.000000,144.000000) scale(0.100000,-0.100000)"
fill="#000000" stroke="none">
<path d="M0 720 l0 -720 1485 0 1485 0 0 720 0 720 -1485 0 -1485 0 0 -720z
m950 439 c110 -51 164 -135 164 -254 0 -48 -5 -80 -17 -102 -16 -30 -22 -33
-63 -33 -40 0 -45 2 -39 18 32 78 31 172 -4 239 -28 55 -94 110 -155 128 -64
19 -189 19 -254 0 l-52 -16 0 -184 0 -185 -44 0 -44 0 -4 153 c-6 179 -15 209
-66 231 l-37 15 90 2 c50 1 119 5 155 9 36 4 121 7 190 6 111 -1 131 -4 180
-27z m848 -183 c51 -106 92 -197 92 -200 0 -4 -23 -6 -52 -4 l-52 3 -68 145
-68 145 0 -142 c0 -78 -4 -144 -9 -147 -5 -3 -12 62 -16 147 -8 173 -19 210
-67 231 -32 14 -30 14 58 15 l90 1 92 -194z m756 179 c-48 -21 -57 -53 -63
-225 l-6 -155 -45 0 -45 0 -5 158 -5 159 -54 -149 c-30 -81 -59 -154 -64 -161
-26 -34 -13 13 54 192 l72 196 96 -1 c89 -1 94 -2 65 -14z m-2404 -476 c9 -16
8 -26 -4 -43 -11 -17 -12 -26 -4 -34 7 -7 8 -15 5 -19 -4 -4 -14 3 -23 15 -19
27 -44 29 -44 2 0 -11 -4 -20 -10 -20 -6 0 -10 27 -10 60 l0 60 40 0 c29 0 42
-5 50 -21z m155 -36 c14 -31 23 -59 19 -62 -3 -3 -10 2 -15 12 -13 22 -58 22
-75 0 -23 -33 -22 -8 3 50 14 31 30 57 34 57 5 0 21 -25 34 -57z m145 9 c0
-26 -5 -53 -12 -60 -15 -15 -45 -16 -53 -2 -4 6 4 9 17 7 21 -2 23 3 26 45 3
42 1 47 -20 51 -17 3 -15 5 10 6 32 1 32 1 32 -47z m133 41 c-25 -3 -33 -9
-33 -24 0 -14 7 -19 28 -20 l27 -2 -27 -4 c-22 -3 -28 -10 -28 -28 0 -19 6
-24 33 -28 28 -3 26 -4 -10 -5 l-43 -2 0 60 0 60 43 -2 c36 -1 38 -2 10 -5z
m172 -2 c3 -6 -7 -9 -22 -8 -40 3 -41 -25 -3 -40 25 -9 31 -17 28 -35 -2 -17
-11 -24 -32 -26 -16 -2 -33 1 -38 6 -7 7 1 10 22 9 46 -3 49 19 6 37 -34 14
-47 41 -29 59 10 10 61 8 68 -2z m131 -41 c30 0 34 3 34 25 0 14 5 25 10 25 6
0 10 -27 10 -60 0 -33 -4 -60 -10 -60 -5 0 -10 14 -10 30 0 28 -3 30 -34 30
-32 0 -35 -3 -39 -32 -2 -18 -4 -4 -4 32 0 36 2 53 4 38 4 -24 9 -28 39 -28z
m155 3 l15 -48 13 48 c8 26 19 46 24 44 6 -2 17 -23 26 -48 l15 -44 15 48 c20
65 34 60 15 -5 -15 -51 -29 -77 -37 -67 -3 2 -11 24 -19 49 l-15 45 -14 -44
c-9 -25 -20 -46 -25 -48 -6 -2 -16 16 -23 39 -7 24 -15 51 -17 61 -3 9 -1 17
4 17 4 0 15 -21 23 -47z m284 -10 c14 -31 23 -59 19 -62 -3 -3 -10 2 -15 12
-12 21 -65 23 -73 2 -3 -8 -10 -15 -15 -15 -5 0 2 27 16 60 15 33 30 60 35 60
4 0 20 -25 33 -57z m179 35 c7 -12 6 -24 -3 -42 -11 -21 -12 -28 -1 -41 8 -10
9 -15 2 -15 -6 0 -16 9 -22 20 -15 27 -47 26 -53 -2 -2 -13 -5 5 -6 40 l-1 63
36 -3 c21 -2 42 -10 48 -20z m96 -38 c0 -33 -4 -60 -10 -60 -6 0 -10 27 -10
60 0 33 4 60 10 60 6 0 10 -27 10 -60z m210 30 c21 -52 35 -54 55 -10 10 22
22 40 27 40 4 0 8 -27 8 -60 0 -33 -4 -60 -10 -60 -5 0 -10 17 -10 38 l-1 37
-15 -27 c-8 -16 -19 -28 -24 -28 -5 0 -16 12 -24 28 l-15 27 -1 -37 c0 -21 -4
-38 -10 -38 -6 0 -10 27 -10 60 0 66 11 76 30 30z m249 -26 c13 -30 21 -58 17
-61 -3 -3 -8 2 -12 11 -8 22 -60 21 -73 -1 -5 -10 -12 -15 -16 -12 -8 8 41
119 53 119 4 0 19 -25 31 -56z m111 31 c0 -21 5 -25 30 -25 25 0 30 4 30 25 0
14 5 25 10 25 6 0 10 -27 10 -60 0 -33 -4 -60 -10 -60 -5 0 -10 14 -10 30 0
27 -3 30 -30 30 -27 0 -30 -3 -30 -30 0 -16 -4 -30 -10 -30 -6 0 -10 27 -10
60 0 33 4 60 10 60 6 0 10 -11 10 -25z m236 -31 c14 -31 22 -59 19 -63 -4 -3
-11 2 -16 12 -13 22 -65 23 -73 1 -4 -9 -9 -14 -12 -11 -8 8 37 117 48 117 5
0 20 -25 34 -56z m186 39 c43 -39 10 -103 -54 -103 l-38 0 0 60 0 60 37 0 c20
0 45 -7 55 -17z m108 -43 c0 -33 -4 -60 -10 -60 -6 0 -10 27 -10 60 0 33 4 60
10 60 6 0 10 -27 10 -60z m100 28 l1 -33 30 33 c17 19 33 31 37 28 3 -4 -4
-16 -16 -28 l-21 -22 25 -33 c29 -38 18 -44 -16 -8 -25 27 -40 25 -40 -6 0
-10 -4 -19 -10 -19 -6 0 -10 27 -10 60 0 33 4 60 10 60 6 0 10 -15 10 -32z
m-2267 -245 c4 -38 7 -92 7 -121 0 -72 21 -118 62 -136 31 -13 23 -14 -117
-15 -143 0 -148 1 -114 15 21 9 42 27 49 42 7 15 15 84 18 155 l5 127 42 0 42
0 6 -67z m410 -35 c88 -138 128 -182 190 -212 l52 -25 -97 -1 -97 0 -34 43
c-18 23 -64 89 -102 147 -37 58 -74 115 -83 128 -14 22 -14 22 45 22 l60 0 66
-102z m710 25 c6 -88 36 -179 70 -211 13 -12 41 -28 62 -36 38 -14 32 -15
-110 -14 -140 0 -148 1 -117 14 41 18 62 64 62 136 0 78 12 188 20 188 4 0 10
-35 13 -77z m405 17 c15 -32 29 -59 33 -60 3 0 13 24 23 53 20 54 32 74 41 65
7 -7 -90 -261 -102 -265 -8 -3 -24 28 -109 215 l-24 52 56 0 55 0 27 -60z
m434 -67 c5 -143 16 -178 62 -198 28 -12 16 -13 -114 -13 -133 0 -142 1 -113
14 49 21 57 45 61 192 l4 132 48 0 48 0 4 -127z"/>
<path d="M80 660 c0 -23 5 -30 19 -30 10 0 24 7 31 15 16 19 -3 45 -31 45 -14
0 -19 -7 -19 -30z"/>
<path d="M261 652 c-15 -28 -14 -32 9 -32 21 0 26 16 11 39 -7 11 -11 10 -20
-7z"/>
<path d="M1281 652 c-15 -28 -14 -32 9 -32 21 0 26 16 11 39 -7 11 -11 10 -20
-7z"/>
<path d="M1430 660 c0 -28 3 -31 28 -28 21 2 27 8 27 28 0 20 -6 26 -27 28
-25 3 -28 0 -28 -28z"/>
<path d="M2013 650 c-11 -28 -10 -30 12 -30 22 0 23 2 14 30 -6 17 -12 30 -13
30 -1 0 -7 -13 -13 -30z"/>
<path d="M2362 650 c-10 -26 -3 -34 22 -28 13 3 13 7 1 28 l-14 25 -9 -25z"/>
<path d="M2520 640 c0 -53 10 -61 51 -40 42 23 16 90 -35 90 -12 0 -16 -11
-16 -50z"/>
</g>
</svg>
